/* XPM */
static char *_893c5a385dd464a9eb4a914826d0c865wtpI5rhxBp0ZoFN[] = {
/* columns rows colors chars-per-pixel */
"32 32 6 1 ",
"  c black",
". c #297300",
"X c #FC5000",
"o c #63CE08",
"O c #FBA962",
"+ c #B5FF52",
/* pixels */
"oo++oo++oo            ++oo++++++",
"oo++oo++oo            ++oo++++++",
"++oo..oo  XXXXXXXXXXXX  ++oo++oo",
"++oo..oo  XXXXXXXXXXXX  ++oo++oo",
"oo++oo  XXXXXXXXXXXXXXXX  ++oo++",
"oo++oo  XXXXXXXXXXXXXXXX  ++oo++",
"++++++  XXXXXX    XXXXXX  oo++++",
"++++++  XXXXXX    XXXXXX  oo++++",
"oo++    XXXX        XXXX    oo++",
"oo++    XXXX        XXXX    oo++",
"++oo        XXXXXXXX        ..oo",
"++oo        XXXXXXXX        ..oo",
"++  OO  OOOOOOOOOOOOOOOO  OO  ++",
"++  OO  OOOOOOOOOOOOOOOO  OO  ++",
"++  OOOOOOOO  OOOO  OOOOOOOO  ++",
"++  OOOOOOOO  OOOO  OOOOOOOO  ++",
"oo++    OOOO  OOOO  OOOO    ++++",
"oo++    OOOO  OOOO  OOOO    ++++",
"++oo..    OOOOXXXXOOOO    oo++oo",
"++oo..    OOOOXXXXOOOO    oo++oo",
"oo++    OOXX        XXOO    oo++",
"oo++    OOXX        XXOO    oo++",
"++  OOOO  OOOOXXXXOOOO  OOOO  ++",
"++  OOOO  OOOOXXXXOOOO  OOOO  ++",
"oo  OOOO  XXXXOOOOXXXX  OOOO  ++",
"oo  OOOO  XXXXOOOOXXXX  OOOO  ++",
"++oo                        ..oo",
"++oo                        ..oo",
"++++++  XXXX        XXXX  ++oo++",
"++++++  XXXX        XXXX  ++oo++",
"++++++oo      ++++      ++oo++++",
"++++++oo      ++++      ++oo++++"
};
