/* XPM */
static char *df027fd082354874e02dc1779c838f59GfAH2edVkdMlpfCm[] = {
/* columns rows colors chars-per-pixel */
"32 32 6 1 ",
"  c #000001",
". c #297300",
"X c #F83808",
"o c #63CE08",
"O c #F89850",
"+ c #B5FF52",
/* pixels */
"oo++oo++oo++++++oo++oo++oo++++++",
"oo++oo++oo++++++oo++oo++oo++++++",
"++oo..oo                ++oo++oo",
"++oo..oo                ++oo++oo",
"oo        XXXXXXXXXXXX        ++",
"oo        XXXXXXXXXXXX        ++",
"++  ++  OO            OO  oo  ++",
"++  ++  OO            OO  oo  ++",
"oo  oo  OOOOXXOOXXXXXXXX  ++  ++",
"oo  oo  OOOOXXOOXXXXXXXX  ++  ++",
"++oo    XXXXXXXXXXXXXXXX    ..oo",
"++oo    XXXXXXXXXXXXXXXX    ..oo",
"++++++++  XXXXXXXXXXXX  oo++oo++",
"++++++++  XXXXXXXXXXXX  oo++oo++",
"++++++oo++    XXXX    oo++oo++++",
"++++++oo++    XXXX    oo++oo++++",
"oo++oo++oo++++    ++oo++oo++++++",
"oo++oo++oo++++    ++oo++oo++++++",
"++oo..oo++            oo++oo++oo",
"++oo..oo++            oo++oo++oo",
"oo++oo++..            ++..++oo++",
"oo++oo++..            ++..++oo++",
"++++++oo    OOXXXXXX    ++oo++++",
"++++++oo    OOXXXXXX    ++oo++++",
"oo++oo++    XXXXXXXX    oo++oo++",
"oo++oo++    XXXXXXXX    oo++oo++",
"++oo++oo++            oo++oo..oo",
"++oo++oo++            oo++oo..oo",
"++++++++oo++oo++++++++++oo++oo++",
"++++++++oo++oo++++++++++oo++oo++",
"++++++oo++oo++++++++++oo++oo++++",
"++++++oo++oo++++++++++oo++oo++++"
};
