/* XPM */
static char *_fd09ff771014478cb059a9530925ec27cpqcwAJ55PAveeA[] = {
/* columns rows colors chars-per-pixel */
"32 32 3 1 ",
"  c #297300",
". c #63CE08",
"X c #B5FF52",
/* pixels */
"..XX..XX..XXXXXX..XX..XX..XXXXXX",
"..XX..XX..XXXXXX..XX..XX..XXXXXX",
"XX..  ..XX..XX..XX..  ..XX..XX..",
"XX..  ..XX..XX..XX..  ..XX..XX..",
"..XX..XX  XX..XX..XX..XX  XX..XX",
"..XX..XX  XX..XX..XX..XX  XX..XX",
"XXXXXX..XX..XXXXXXXXXX..XX..XXXX",
"XXXXXX..XX..XXXXXXXXXX..XX..XXXX",
"..XX..XX..XX..XX..XX..XX..XX..XX",
"..XX..XX..XX..XX..XX..XX..XX..XX",
"XX..XX..XX..  ..XX..XX..XX..  ..",
"XX..XX..XX..  ..XX..XX..XX..  ..",
"XXXXXXXX..XX..XXXXXXXXXX..XX..XX",
"XXXXXXXX..XX..XXXXXXXXXX..XX..XX",
"XXXXXX..XX..XXXXXXXXXX..XX..XXXX",
"XXXXXX..XX..XXXXXXXXXX..XX..XXXX",
"..XX..XX..XXXXXX..XX..XX..XXXXXX",
"..XX..XX..XXXXXX..XX..XX..XXXXXX",
"XX..  ..XX..XX..XX..  ..XX..XX..",
"XX..  ..XX..XX..XX..  ..XX..XX..",
"..XX..XX  XX..XX..XX..XX  XX..XX",
"..XX..XX  XX..XX..XX..XX  XX..XX",
"XXXXXX..XX..XXXXXXXXXX..XX..XXXX",
"XXXXXX..XX..XXXXXXXXXX..XX..XXXX",
"..XX..XX..XX..XX..XX..XX..XX..XX",
"..XX..XX..XX..XX..XX..XX..XX..XX",
"XX..XX..XX..  ..XX..XX..XX..  ..",
"XX..XX..XX..  ..XX..XX..XX..  ..",
"XXXXXXXX..XX..XXXXXXXXXX..XX..XX",
"XXXXXXXX..XX..XXXXXXXXXX..XX..XX",
"XXXXXX..XX..XXXXXXXXXX..XX..XXXX",
"XXXXXX..XX..XXXXXXXXXX..XX..XXXX"
};
