/* XPM */
static char *_f7aadc8bf744c47d878d14784936e79WBCo2MdbAxq9BPdw[] = {
/* columns rows colors chars-per-pixel */
"32 32 6 1 ",
"  c #000001",
". c #297300",
"X c #F83808",
"o c #63CE08",
"O c #F89850",
"+ c #B5FF52",
/* pixels */
"oo++oo++oo++++++oo++oo++oo++++++",
"oo++oo++oo++++++oo++oo++oo++++++",
"++oo..oo++oo++oo++oo..oo++oo++oo",
"++oo..oo++oo++oo++oo..oo++oo++oo",
"oo++oo++..++        oo++..++oo++",
"oo++oo++..++        oo++..++oo++",
"++++++oo    XXXXXXXX    ++oo++++",
"++++++oo    XXXXXXXX    ++oo++++",
"oo++oo  XXXXXXOOOOXXXXXX  ++oo++",
"oo++oo  XXXXXXOOOOXXXXXX  ++oo++",
"++oo++  XXXXXXOOOOXXXXXX  oo..oo",
"++oo++  XXXXXXOOOOXXXXXX  oo..oo",
"++++  XXXXXXXXXXXXXXXXXXXX  oo++",
"++++  XXXXXXXXXXXXXXXXXXXX  oo++",
"++++  XXXXXXXXXXXXXXXXXXXX  ++++",
"++++  XXXXXXXXXXXXXXXXXXXX  ++++",
"oo++  OOOOXXXXXXXXXXXXOOOO  ++++",
"oo++  OOOOXXXXXXXXXXXXOOOO  ++++",
"++oo  OOOOOOOOOOOOOOOOOOOO  ++oo",
"++oo  OOOOOOOOOOOOOOOOOOOO  ++oo",
"oo++oo  OOOOOOOOOOOOOOOO  ++oo++",
"oo++oo  OOOOOOOOOOOOOOOO  ++oo++",
"++++++  OOOOOOOOOOOOOOOO  oo++++",
"++++++  OOOOOOOOOOOOOOOO  oo++++",
"oo++oo++    OOOOOOOO    oo++oo++",
"oo++oo++    OOOOOOOO    oo++oo++",
"++oo++oo++oo        ++oo++oo..oo",
"++oo++oo++oo        ++oo++oo..oo",
"++++++++oo++oo++++++++++oo++oo++",
"++++++++oo++oo++++++++++oo++oo++",
"++++++oo++oo++++++++++oo++oo++++",
"++++++oo++oo++++++++++oo++oo++++"
};
