/* XPM */
static char *_93369ae00e2473cec7f52c128728f08Oj63fvS3EULYNuPa[] = {
/* columns rows colors chars-per-pixel */
"32 32 4 1 ",
"  c #393939",
". c #297300",
"X c #63CE08",
"o c #B5FF52",
/* pixels */
"XXooXXooXXoo      ooXXooXXooXXoo",
"XXooXXooXXoo      ooXXooXXooXXoo",
"ooXXoo      ooXXoo      ooXXooXX",
"ooXXoo      ooXXoo      ooXXooXX",
"XX..  XX  XXXXooXXoo  ..  ooXXoo",
"XX..  XX  XXXXooXXoo  ..  ooXXoo",
"ooXX  XXXXXXooXXooXX..XX  XXooXX",
"ooXX  XXXXXXooXXooXX..XX  XXooXX",
"XX  XX  ..  XXooXX..XX  ..  XXoo",
"XX  XX  ..  XXooXX..XX  ..  XXoo",
"oo  ..XX  XX..  ..  ......  ooXX",
"oo  ..XX  XX..  ..  ......  ooXX",
"XX    ..XX..XX..XX..  ..    ..oo",
"XX    ..XX..XX..XX..  ..    ..oo",
"  XX..XX..XX..  ..  ..  ..    XX",
"  XX..XX..XX..  ..  ..  ..    XX",
"    ........  ..  ..  ..  ..  oo",
"    ........  ..  ..  ..  ..  oo",
"  ..    ..........  ..  ....  XX",
"  ..    ..........  ..  ....  XX",
"..    ..  ..  ..  ..  ..    XXoo",
"..    ..  ..  ..  ..  ..    XXoo",
"oo  ..  ..      ..      ..  ooXX",
"oo  ..  ..      ..      ..  ooXX",
"XXoo      ..              ..XXoo",
"XXoo      ..              ..XXoo",
"ooXX..        ....      ..XXooXX",
"ooXX..        ....      ..XXooXX",
"XXooXX....  ..XXXX..  ....oo..oo",
"XXooXX....  ..XXXX..  ....oo..oo",
"ooXXooXX....        ....ooXXooXX",
"ooXXooXX....        ....ooXXooXX"
};
